Patient4_TMGait_0pt5_02_right_31_EMG.mot
version=1
nRows=13
nColumns=33
inDegrees=no
endheader
time	1LAddLong	2LGlutMax	3LGlutMed	4LIliopsoas	5LSemiMemb	6LBicFemLong	7LRecFem	8LVastMed	9LVastLat	10LGasMed	11LTibAnt	12lTibPost	13LPeroneusLong	14LSol	15LExtDigLong	16LFlexDigLong	17RAddLong	18RGlutMax	19RGlutMed	20RIliopsoas	21RSemiMemb	22RBicFemLong	23RRecFem	24RVastMed	25RVastLat	26RGasMed	27RTibAnt	28RTibPost	29RPeroneusLong	30RSol	31RExtDigLong	32RFlexDigLong
40.49	0.00061	-0.008087	-0.024567	-0.008545	0.012054	0.028381	0.053864	0.002441	-0.14084	0.010681	0.007782	0.006256	-0.04425	0.19272	0.67795	0.001984	-0.014954	-0.047455	-0.027008	0.24674	-0.006714	0.018158	0.053253	-0.027161	0.025482	-0.005188	-0.20477	-0.002289	-0.050812	0.012665	-0.005035	-0.026855
40.491	0.001831	-0.006256	-0.072174	0.002899	0.010223	0.043488	0.034943	-0.004578	-0.06424	0.002594	-0.1796	-0.16235	0.02655	0.11322	0.41779	0.000305	0.023956	0.004425	-0.031128	0.12512	-0.004578	0.000916	0.04776	-0.071259	0.008087	0.001831	0.076752	0.001526	-0.017548	-0.008087	-0.002289	-0.036316
40.492	-0.003662	-0.000458	0.082855	0.015869	0.009308	0.028534	0.037384	-0.001373	-0.007019	0.00946	-0.054169	0.16007	0.023193	-0.12726	0.43747	0.015869	0.073547	-0.000153	-0.067444	0.085144	-0.010834	-0.023041	0.046082	-0.074005	0.007629	0.000305	0.22659	-0.005188	0.011749	-0.000458	-0.005188	-0.036316
40.493	0.002899	-0.000153	0.12512	0.015259	0.010681	-0.011139	0.023651	0.000305	0.068817	0.021057	0.17853	0.1738	0.044403	-0.076141	-0.055847	-0.00351	0.14374	0.008698	-0.034332	0.028381	-0.021973	-0.04303	0.068054	-0.10986	0.003204	0.000153	0.04303	0.00061	-0.044403	-0.010376	-0.001526	-0.034027
40.494	0.003357	0.026245	0.24658	0.014496	0.007324	-0.020752	0.03891	0.001831	0.059509	0.01297	0.16708	-0.11169	0.053253	-0.12344	-0.16678	-0.018616	0.1387	0.055542	-0.01709	0.05661	-0.030212	-0.033264	0.047302	-0.12344	0.001373	-0.001221	-0.074158	-0.00061	0.002136	-0.024872	-0.005341	-0.027008
40.495	0.00473	-0.001678	0.076447	0.013123	0.005188	-0.01236	-0.005035	0.00824	0.024261	0.022736	0.020599	0.01358	-0.045013	0.007782	-0.1561	-0.007782	0.048523	0.016632	0.03952	0.037079	-0.029755	-0.001526	0.065613	-0.072632	0.001526	0.001984	-0.050049	-0.001984	0.009613	-0.016174	-0.005341	-0.023041
40.496	-0.001984	0.001831	-0.029144	0.009155	-0.00061	0.001068	-0.005493	-0.003662	0.020294	0.039063	-0.093842	-0.025635	-0.056458	0.033875	-0.19562	-0.002136	-0.033875	0.008087	-0.090485	0.10773	-0.032349	0.007324	0.051422	-0.095673	0.00885	0.00885	0.007477	0.004578	-0.049744	0.019073	-0.002289	-0.022888
40.497	0.007782	0.031433	0.14099	0.005951	0.000305	0.011597	0.067444	-0.002747	0.002747	0.038757	-0.11643	-0.023041	-0.018158	-0.035553	-0.14832	0.005798	-0.10468	0.04303	-0.048523	0.04715	-0.020142	0.005493	0.068665	-0.046539	0.00061	-0.006256	0.056763	0.003357	-0.027313	0.054169	-0.003357	-0.024567
40.498	0.003662	0.021057	0.086365	0.011597	0.003662	0.017242	0.05722	-0.001984	0.021515	0.019684	0.019531	-0.013123	0.013733	-0.064545	0.017242	-0.001221	-0.15488	0.003967	-0.029602	0.004425	-0.017242	-0.003357	0.070648	-0.077667	0.006104	-0.007935	0.055237	0	0.044403	0.067444	-0.003357	-0.020142
40.499	0.001068	0.057373	0.066833	0.010681	-0.001831	0.014801	0.035553	-0.012054	0.070038	0.036926	0.12741	-0.005951	-0.033875	-0.049744	0.3714	0.015869	-0.14008	-0.036774	0.048523	-0.063934	-0.003204	0.015259	0.088654	-0.064545	-0.004272	-0.006256	0.042267	0.00473	0.048828	0.035095	-0.001221	-0.011444
40.5	0.004272	0.035095	0.005951	0.004883	0.011902	0.011139	-0.028534	0.002899	0.1062	0.033569	0.13351	-0.009918	-0.00473	-0.036163	0.38238	-0.009766	-0.13733	-0.044403	-0.030975	-0.12878	-0.009766	0.009918	0.078888	-0.10101	0.01297	-0.00351	0.033722	0.003815	0.040436	-0.012207	-0.002594	-0.005646
40.501	0.002899	0.019989	0.11749	0.017395	0.00061	-0.016022	-0.083008	0.004578	0.19836	-0.014343	0.090942	-0.012665	0.091858	-0.055389	-0.19928	0.004425	-0.10315	-0.016327	0.10803	-0.12375	0.038452	0.013428	0.10407	-0.059967	0.000458	-0.006104	0.031738	0.003357	-0.024109	-0.013428	-0.001526	0.00061
40.502	0.005341	0.03067	0.12741	0.014191	0.000916	-0.002747	-0.022736	0.005341	0.14679	-0.015259	0.081024	-0.014496	0.094147	-0.057983	-0.121	0.002594	-0.081635	-0.028381	0.26504	-0.088348	0.043945	0.031891	0.091705	-0.013885	0.006256	-0.006409	0.037231	-0.001831	-0.091858	0.010376	-0.004578	0.002289
